#N canvas 0 0 573 373 10;
#X obj 17 17 inlet;
#X obj 17 38 tabplay~ \$1-\$0;
#X obj 302 87 loadbang;
#X obj 302 156 spigot;
#X obj 302 247 soundfiler;
#X obj 335 135 <= 0;
#X obj 335 112 f;
#X obj 302 198 pack s \$0;
#X obj 302 177 symbol \$1;
#X floatatom 302 268 5 0 0 0 - - -;
#X obj 382 248 print;
#X msg 302 222 read -resize ../audio/\$1.wav \$1-\$2;
#X obj 297 40 table \$1-\$0;
#X text 302 21 array to hold sample;
#X text 308 66 on load \, load sample;
#X text 358 115 keep sample from laoding;
#X text 369 133 comment;
#X obj 18 67 throw~ drum_bus_\$2;
#X connect 0 0 1 0;
#X connect 1 0 17 0;
#X connect 2 0 3 0;
#X connect 2 0 6 0;
#X connect 3 0 8 0;
#X connect 4 0 6 0;
#X connect 4 0 9 0;
#X connect 5 0 3 1;
#X connect 6 0 5 0;
#X connect 7 0 11 0;
#X connect 8 0 7 0;
#X connect 11 0 4 0;
#X connect 11 0 10 0;
