#N canvas 0 0 875 464 10;
#X obj 19 26 netreceive \$1;
#X floatatom 96 56 5 0 0 0 - - -;
#X obj 19 88 route note attribute boolean event;
#X obj 19 184 print note_\$1;
#X obj 69 163 print attribute_\$1;
#X obj 119 142 print boolean_\$1;
#X obj 169 120 print event_\$1;
#X obj 19 277 s note_\$0;
#X obj 68 256 s attribute_\$0;
#X obj 119 236 s boolean_\$0;
#X obj 169 216 s event_\$0;
#N canvas 53 213 450 300 note 0;
#X obj 39 22 r note_\$0;
#X obj 39 57 unpack f f;
#X floatatom 39 85 5 0 0 0 - - -;
#X floatatom 96 84 5 0 0 0 - - -;
#X obj 39 108 pipe 1;
#X obj 39 168 mtof;
#X obj 39 196 s pitch_\$0;
#X obj 108 197 s noteon_\$0;
#X obj 39 144 makenote 1;
#X connect 0 0 1 0;
#X connect 1 0 2 0;
#X connect 1 1 3 0;
#X connect 2 0 4 0;
#X connect 3 0 8 2;
#X connect 4 0 8 0;
#X connect 5 0 6 0;
#X connect 8 0 5 0;
#X connect 8 1 7 0;
#X restore 296 85 pd note;
#X text 296 52 message;
#X text 296 66 parsing/routing;
#X text 433 56 main sound maker;
#N canvas 116 213 450 300 synth 1;
#X obj 60 104 osc~;
#X msg 59 38 \$1 10;
#X obj 59 63 line~;
#X obj 59 13 r pitch_\$0;
#X obj 60 278 dac~;
#N canvas 471 25 450 300 volume~ 0;
#X obj 24 25 inlet~;
#X obj 23 219 outlet~;
#X obj 23 185 *~;
#X obj 123 148 line~;
#X obj 123 89 r volume_\$0;
#X msg 123 127 \$1 10;
#X obj 123 108 / 100;
#X obj 223 70 loadbang;
#X msg 223 91 50;
#X text 226 47 default;
#X connect 0 0 2 0;
#X connect 2 0 1 0;
#X connect 3 0 2 1;
#X connect 4 0 6 0;
#X connect 5 0 3 0;
#X connect 6 0 5 0;
#X connect 7 0 8 0;
#X connect 8 0 6 0;
#X restore 61 235 pd volume~;
#N canvas 0 0 450 300 note_envelope~ 0;
#X obj 65 163 *~;
#X obj 159 59 r noteon_\$0;
#X msg 159 81 \$1 10;
#X obj 159 106 line~;
#X obj 65 117 inlet~;
#X obj 65 204 outlet~;
#X connect 0 0 5 0;
#X connect 1 0 2 0;
#X connect 2 0 3 0;
#X connect 3 0 0 1;
#X connect 4 0 0 0;
#X restore 61 206 pd note_envelope~;
#N canvas 0 0 450 300 master_volume~ 1;
#X obj 34 35 inlet~;
#X obj 33 229 outlet~;
#X obj 33 195 *~;
#X obj 133 158 line~;
#X msg 133 137 \$1 10;
#X obj 133 116 / 100;
#X obj 133 95 r master_volume_\$0;
#X obj 252 74 loadbang;
#X msg 252 95 50;
#X text 255 51 default;
#X connect 0 0 2 0;
#X connect 2 0 1 0;
#X connect 3 0 2 1;
#X connect 4 0 3 0;
#X connect 5 0 4 0;
#X connect 6 0 5 0;
#X connect 7 0 8 0;
#X connect 8 0 5 0;
#X restore 61 258 pd master_volume~;
#X connect 0 0 6 0;
#X connect 1 0 2 0;
#X connect 2 0 0 0;
#X connect 3 0 1 0;
#X connect 5 0 7 0;
#X connect 6 0 5 0;
#X connect 7 0 4 0;
#X connect 7 0 4 1;
#X restore 436 85 pd synth;
#N canvas 546 210 450 300 attribute 0;
#X obj 16 11 r attribute_\$0;
#X obj 16 37 route volume;
#X obj 16 65 s volume_\$0;
#X connect 0 0 1 0;
#X connect 1 0 2 0;
#X restore 296 106 pd attribute;
#X connect 0 0 2 0;
#X connect 0 1 1 0;
#X connect 2 0 3 0;
#X connect 2 0 7 0;
#X connect 2 1 4 0;
#X connect 2 1 8 0;
#X connect 2 2 5 0;
#X connect 2 2 9 0;
#X connect 2 3 6 0;
#X connect 2 3 10 0;
