#N canvas 149 99 875 464 10;
#X obj 19 276 print note_\$1;
#X obj 70 255 print attribute_\$1;
#X obj 121 234 print boolean_\$1;
#X obj 172 212 print event_\$1;
#X obj 19 369 s note_\$0;
#X obj 69 348 s attribute_\$0;
#X obj 121 328 s boolean_\$0;
#X obj 172 308 s event_\$0;
#N canvas 438 214 450 300 note 0;
#X obj 39 22 r note_\$0;
#X obj 39 57 unpack f f;
#X floatatom 39 85 5 0 0 0 - - -;
#X floatatom 109 84 5 0 0 0 - - -;
#X obj 39 168 mtof;
#X obj 39 196 s pitch_\$0;
#X obj 109 197 s note_switch_\$0;
#X msg 109 172 1;
#X obj 109 106 t b f;
#X obj 142 136 del;
#X msg 142 172 0;
#X connect 0 0 1 0;
#X connect 1 0 2 0;
#X connect 1 1 3 0;
#X connect 2 0 4 0;
#X connect 3 0 8 0;
#X connect 4 0 5 0;
#X connect 7 0 6 0;
#X connect 8 0 9 0;
#X connect 8 0 7 0;
#X connect 8 1 9 1;
#X connect 9 0 10 0;
#X connect 10 0 6 0;
#X restore 365 75 pd note;
#X text 365 42 message;
#X text 365 56 parsing/routing;
#X text 502 46 main sound maker;
#N canvas 483 166 450 297 synth 0;
#X msg 59 38 \$1 10;
#X obj 59 63 line~;
#X obj 59 13 r pitch_\$0;
#X obj 60 278 dac~;
#N canvas 0 72 450 300 volume~ 0;
#X obj 24 25 inlet~;
#X obj 23 219 outlet~;
#X obj 23 185 *~;
#X obj 123 148 line~;
#X obj 123 89 r volume_\$0;
#X msg 123 127 \$1 10;
#X obj 123 108 / 100;
#X obj 223 70 loadbang;
#X msg 223 91 50;
#X text 226 47 default;
#X floatatom 174 127 5 0 0 0 - - -;
#X connect 0 0 2 0;
#X connect 2 0 1 0;
#X connect 3 0 2 1;
#X connect 4 0 6 0;
#X connect 5 0 3 0;
#X connect 6 0 5 0;
#X connect 6 0 10 0;
#X connect 7 0 8 0;
#X connect 8 0 6 0;
#X restore 61 235 pd volume~;
#N canvas 0 50 450 446 master_volume~ 0;
#X obj 34 0 inlet~;
#X obj 33 299 outlet~;
#X obj 33 265 *~;
#X obj 133 250 line~;
#X msg 133 229 \$1 10;
#X obj 133 208 / 100;
#X obj 133 187 r master_volume_\$0;
#X obj 252 166 loadbang;
#X msg 252 187 50;
#X text 255 143 default;
#X obj 33 153 *~;
#X obj 133 138 line~;
#X msg 133 117 \$1 10;
#X obj 133 96 / 100;
#X obj 251 58 loadbang;
#X text 138 169 master volume;
#X text 140 58 track volume;
#X msg 252 80 100;
#X obj 133 75 r track_volume_\$0;
#X floatatom 91 121 5 0 0 0 - - -;
#X connect 0 0 10 0;
#X connect 2 0 1 0;
#X connect 3 0 2 1;
#X connect 4 0 3 0;
#X connect 5 0 4 0;
#X connect 6 0 5 0;
#X connect 7 0 8 0;
#X connect 8 0 5 0;
#X connect 10 0 2 0;
#X connect 11 0 10 1;
#X connect 12 0 11 0;
#X connect 13 0 12 0;
#X connect 13 0 19 0;
#X connect 14 0 17 0;
#X connect 18 0 13 0;
#X restore 61 258 pd master_volume~;
#N canvas 116 50 759 482 synthesis~ 0;
#X obj 12 15 inlet~;
#X obj 13 402 outlet~;
#X text 63 14 Control frequency (audio);
#X text 64 401 Audio signal;
#X obj 12 36 s~ synth_in_\$0;
#X obj 13 63 r~ synth_in_\$0;
#X obj 136 62 r~ synth_in_\$0;
#X obj 259 62 r~ synth_in_\$0;
#X obj 436 17 loadbang;
#X msg 436 38 1;
#X obj 436 57 s sine_switch_\$0;
#X obj 13 168 osc~;
#X obj 13 377 catch~ synth_out_\$0;
#N canvas 7 129 450 300 note_envelope~ 0;
#X obj 65 163 *~;
#X obj 159 106 line~;
#X obj 65 117 inlet~;
#X obj 65 204 outlet~;
#X obj 159 8 r start_envelope_\$0;
#X obj 192 30 r sine_switch_\$0;
#X obj 159 54 spigot;
#X obj 190 79 r stop_envelope_\$0;
#X text 207 58 Start of notes lmited by switch;
#X text 197 104 End of notes always gets through;
#X connect 0 0 3 0;
#X connect 1 0 0 1;
#X connect 2 0 0 0;
#X connect 4 0 6 0;
#X connect 5 0 6 1;
#X connect 6 0 1 0;
#X connect 7 0 1 0;
#X restore 13 188 pd note_envelope~;
#X obj 13 209 throw~ synth_out_\$0;
#N canvas 26 206 450 300 note_envelope~ 0;
#X obj 65 163 *~;
#X obj 159 106 line~;
#X obj 65 117 inlet~;
#X obj 65 204 outlet~;
#X obj 159 8 r start_envelope_\$0;
#X obj 159 54 spigot;
#X obj 190 79 r stop_envelope_\$0;
#X text 207 58 Start of notes lmited by switch;
#X text 197 104 End of notes always gets through;
#X obj 192 30 r fm_switch_\$0;
#X obj 116 59 tgl 15 0 empty empty empty 17 7 0 10 -262144 -1 -1 0
1;
#X connect 0 0 3 0;
#X connect 1 0 0 1;
#X connect 2 0 0 0;
#X connect 4 0 5 0;
#X connect 5 0 1 0;
#X connect 6 0 1 0;
#X connect 9 0 5 1;
#X connect 9 0 10 0;
#X restore 136 187 pd note_envelope~;
#X obj 136 208 throw~ synth_out_\$0;
#N canvas 273 163 680 300 fm_synth~ 0;
#X obj 14 13 inlet~;
#X obj 15 223 outlet~;
#X obj 16 183 osc~;
#X obj 15 155 +~;
#X obj 71 98 osc~;
#X obj 71 119 *~;
#X obj 313 14 r fm_depth_\$0;
#X obj 324 33 loadbang;
#X obj 313 74 / 100;
#X msg 313 95 \$1 10;
#X obj 313 115 line~;
#X obj 312 135 s~ fm_depth_\$0;
#X obj 418 33 loadbang;
#X obj 407 74 / 100;
#X msg 407 95 \$1 10;
#X obj 407 115 line~;
#X obj 407 14 r fm_freq_\$0;
#X obj 117 55 r~ fm_depth_\$0;
#X obj 117 97 *~;
#X obj 133 76 r~ synth_in_\$0;
#X obj 71 55 *~;
#X obj 87 34 r~ synth_in_\$0;
#X obj 406 135 s~ fm_freq_\$0;
#X obj 71 13 r~ fm_freq_\$0;
#X floatatom 279 97 5 0 0 0 - - -;
#X floatatom 373 97 5 0 0 0 - - -;
#X msg 418 54 50;
#X msg 324 54 20;
#X connect 0 0 3 0;
#X connect 2 0 1 0;
#X connect 3 0 2 0;
#X connect 4 0 5 0;
#X connect 5 0 3 1;
#X connect 6 0 8 0;
#X connect 7 0 27 0;
#X connect 8 0 9 0;
#X connect 8 0 24 0;
#X connect 9 0 10 0;
#X connect 10 0 11 0;
#X connect 12 0 26 0;
#X connect 13 0 14 0;
#X connect 13 0 25 0;
#X connect 14 0 15 0;
#X connect 15 0 22 0;
#X connect 16 0 13 0;
#X connect 17 0 18 0;
#X connect 18 0 5 1;
#X connect 19 0 18 1;
#X connect 20 0 4 0;
#X connect 21 0 20 1;
#X connect 23 0 20 0;
#X connect 26 0 13 0;
#X connect 27 0 8 0;
#X restore 136 167 pd fm_synth~;
#X text 21 149 Simple sine;
#X text 149 144 FM algorithm;
#N canvas 27 93 450 300 note_envelope~ 0;
#X obj 65 163 *~;
#X obj 159 106 line~;
#X obj 65 117 inlet~;
#X obj 65 204 outlet~;
#X obj 159 8 r start_envelope_\$0;
#X obj 159 54 spigot;
#X obj 190 79 r stop_envelope_\$0;
#X text 207 58 Start of notes lmited by switch;
#X text 197 104 End of notes always gets through;
#X obj 192 31 r sq_switch_\$0;
#X connect 0 0 3 0;
#X connect 1 0 0 1;
#X connect 2 0 0 0;
#X connect 4 0 5 0;
#X connect 5 0 1 0;
#X connect 6 0 1 0;
#X connect 9 0 5 1;
#X restore 259 187 pd note_envelope~;
#X obj 259 208 throw~ synth_out_\$0;
#X text 268 146 filtered square wave;
#N canvas 15 91 741 348 square~ 0;
#X obj 15 13 inlet~;
#X obj 15 264 outlet~;
#X obj 15 32 osc~;
#X obj 15 51 expr~ $v1 > 0;
#X obj 171 98 r~ sq_freq_\$0;
#X obj 196 119 r sq_q_\$0;
#X obj 145 139 vcf~ 50 5;
#X obj 329 296 s~ sq_freq_\$0;
#X obj 16 240 *~;
#X obj 30 171 r sq_raw_level_\$0;
#X msg 30 192 \$1 10;
#X obj 30 213 line~;
#X obj 145 235 *~;
#X msg 159 187 \$1 10;
#X obj 159 208 line~;
#N canvas 1 50 955 300 filter_switch 0;
#X obj 48 109 s sq_raw_level_\$0;
#X obj 168 109 s sq_cooked_level_\$0;
#X obj 48 71 f;
#X obj 168 71 f;
#X obj 352 26 r sq_filter_switch_\$0;
#X obj 48 25 r sq_raw_\$0;
#X obj 352 47 sel 0 1;
#X obj 168 25 r sq_cooked_\$0;
#X obj 352 132 s sq_raw_\$0;
#X obj 409 112 s sq_cooked_\$0;
#X msg 352 68 1 0;
#X msg 389 70 0 1;
#X obj 352 93 unpack f f;
#X text 328 69 raw;
#X text 418 71 filtered;
#X obj 300 0 loadbang;
#X obj 63 48 r sq_raw_lvl_\$0;
#X obj 183 47 r sq_cooked_lvl_\$0;
#X obj 582 35 r sq_depth_\$0;
#X obj 582 103 / 100;
#X obj 582 227 s sq_cooked_lvl_\$0;
#X obj 628 125 * -1;
#X obj 628 146 + 1;
#X obj 628 187 s sq_raw_lvl_\$0;
#X obj 591 56 loadbang;
#X msg 591 77 50;
#X text 355 156 sq_filter on/off;
#X text 356 173 on - raw signal \, no filtered;
#X text 356 191 off - mix of raw and filtered;
#X text 391 205 decided by sq_depth;
#X text 583 -3 work out levels by depth;
#X obj 745 145 bang;
#X obj 745 166 s sq_raw_\$0;
#X obj 745 187 s sq_cooked_\$0;
#X obj 745 125 spigot;
#X text 787 124 stop change being made if;
#X text 787 138 filter is off;
#X obj 778 98 r sq_cooked_\$0;
#X obj 745 30 r sq_raw_\$0;
#X obj 745 51 sel 0;
#X obj 745 72 del 10;
#X floatatom 53 92 5 0 0 0 - - -;
#X floatatom 173 92 5 0 0 0 - - -;
#X msg 300 19 0;
#X connect 2 0 0 0;
#X connect 2 0 41 0;
#X connect 3 0 1 0;
#X connect 3 0 42 0;
#X connect 4 0 6 0;
#X connect 5 0 2 0;
#X connect 6 0 10 0;
#X connect 6 1 11 0;
#X connect 7 0 3 0;
#X connect 10 0 12 0;
#X connect 11 0 12 0;
#X connect 12 0 8 0;
#X connect 12 1 9 0;
#X connect 15 0 43 0;
#X connect 16 0 2 1;
#X connect 17 0 3 1;
#X connect 18 0 19 0;
#X connect 19 0 20 0;
#X connect 19 0 21 0;
#X connect 19 0 34 0;
#X connect 21 0 22 0;
#X connect 22 0 23 0;
#X connect 24 0 25 0;
#X connect 25 0 19 0;
#X connect 31 0 32 0;
#X connect 31 0 33 0;
#X connect 34 0 31 0;
#X connect 37 0 34 1;
#X connect 38 0 39 0;
#X connect 39 0 40 0;
#X connect 40 0 34 0;
#X connect 43 0 6 0;
#X restore 431 16 pd filter_switch;
#X floatatom 73 192 5 0 0 0 - - -;
#X floatatom 204 186 5 0 0 0 - - -;
#X obj 159 164 r sq_cooked_level_\$0;
#X obj 529 309 s sq_q_\$0;
#X obj 495 159 loadbang;
#X obj 329 217 sig~;
#X obj 329 88 r sq_freq_\$0;
#X text 337 106 0 - 100;
#X text 338 167 0 - 2;
#X obj 329 274 *~;
#X obj 344 248 r~ synth_in_\$0;
#X obj 321 43 loadbang;
#X obj 329 122 / 100;
#X text 338 138 0 - 1;
#X obj 329 152 * 2;
#X msg 321 63 60;
#X obj 15 146 *~ 0.1;
#X floatatom 290 196 5 0 0 0 - - -;
#X obj 529 183 r sq_width_\$0;
#X obj 529 205 / 100;
#X obj 529 226 * -1;
#X obj 529 247 + 1;
#X obj 529 268 * 100;
#X obj 529 288 + 5;
#X msg 495 181 100;
#X connect 0 0 2 0;
#X connect 2 0 3 0;
#X connect 3 0 6 0;
#X connect 3 0 32 0;
#X connect 4 0 6 1;
#X connect 5 0 6 2;
#X connect 6 0 12 0;
#X connect 8 0 1 0;
#X connect 9 0 10 0;
#X connect 9 0 16 0;
#X connect 10 0 11 0;
#X connect 11 0 8 1;
#X connect 12 0 1 0;
#X connect 13 0 14 0;
#X connect 14 0 12 1;
#X connect 18 0 13 0;
#X connect 18 0 17 0;
#X connect 20 0 40 0;
#X connect 21 0 25 0;
#X connect 22 0 28 0;
#X connect 25 0 7 0;
#X connect 26 0 25 1;
#X connect 27 0 31 0;
#X connect 28 0 30 0;
#X connect 30 0 21 0;
#X connect 30 0 33 0;
#X connect 31 0 28 0;
#X connect 32 0 8 0;
#X connect 34 0 35 0;
#X connect 35 0 36 0;
#X connect 36 0 37 0;
#X connect 37 0 38 0;
#X connect 38 0 39 0;
#X connect 39 0 19 0;
#X connect 40 0 35 0;
#X restore 259 167 pd square~;
#X msg 541 37 0;
#X obj 541 58 s fm_switch_\$0;
#X obj 551 77 s sq_switch_\$0;
#X connect 0 0 4 0;
#X connect 5 0 11 0;
#X connect 6 0 17 0;
#X connect 7 0 23 0;
#X connect 8 0 9 0;
#X connect 8 0 24 0;
#X connect 9 0 10 0;
#X connect 11 0 13 0;
#X connect 12 0 1 0;
#X connect 13 0 14 0;
#X connect 15 0 16 0;
#X connect 17 0 15 0;
#X connect 20 0 21 0;
#X connect 23 0 20 0;
#X connect 24 0 25 0;
#X connect 24 0 26 0;
#X restore 60 104 pd synthesis~;
#X connect 0 0 1 0;
#X connect 1 0 6 0;
#X connect 2 0 0 0;
#X connect 4 0 5 0;
#X connect 5 0 3 0;
#X connect 5 0 3 1;
#X connect 6 0 4 0;
#X restore 505 75 pd synth;
#N canvas 557 50 450 470 attribute 0;
#X obj 16 11 r attribute_\$0;
#X obj 16 71 s volume_\$0;
#X obj 56 92 s attack_\$0;
#X obj 99 71 s decay_\$0;
#X obj 182 71 s release_\$0;
#X obj 140 92 s sustain_\$0;
#X text 108 9 Volume related;
#X obj 17 210 r attribute_\$0;
#X text 109 208 FM attributes;
#X obj 17 231 route fm_depth fm_frequency;
#X obj 17 252 s fm_depth_\$0;
#X obj 96 273 s fm_freq_\$0;
#X obj 206 209 r attribute_\$0;
#X text 298 207 square attributes;
#X obj 206 230 route sq_depth sq_width sq_freq;
#X obj 206 251 s sq_depth_\$0;
#X obj 267 270 s sq_width_\$0;
#X obj 328 291 s sq_freq_\$0;
#X obj 18 327 r attribute_\$0;
#X text 110 324 noise attributes;
#X obj 18 348 route noise_attack noise_decay noise_f_freq noise_f_width
noise_f_mod_freq noise_f_mod_depth;
#X obj 18 382 s n_attack_\$0;
#X obj 74 401 s n_decay_\$0;
#X obj 131 422 s n_f_freq_\$0;
#X obj 300 423 s n_f_mod_depth_\$0;
#X obj 244 402 s n_f_mod_freq_\$0;
#X obj 187 381 s n_f_width_\$0;
#X obj 223 92 s drum_level_\$0;
#X obj 17 135 r attribute_\$0;
#X text 113 137 drum roll;
#X obj 17 155 route snare_roll;
#X obj 17 177 s snare_roll_\$0;
#X text 119 157 2 numbers \, note time and roll length;
#X text 119 174 both in ms;
#X obj 16 37 route volume attack_time decay_time sustain_level release_time
drum_level track_volume;
#X obj 265 71 s track_volume_\$0;
#X connect 0 0 34 0;
#X connect 7 0 9 0;
#X connect 9 0 10 0;
#X connect 9 1 11 0;
#X connect 12 0 14 0;
#X connect 14 0 15 0;
#X connect 14 1 16 0;
#X connect 14 2 17 0;
#X connect 18 0 20 0;
#X connect 20 0 21 0;
#X connect 20 1 22 0;
#X connect 20 2 23 0;
#X connect 20 3 26 0;
#X connect 20 4 25 0;
#X connect 20 5 24 0;
#X connect 28 0 30 0;
#X connect 30 0 31 0;
#X connect 34 0 1 0;
#X connect 34 1 2 0;
#X connect 34 2 3 0;
#X connect 34 3 5 0;
#X connect 34 4 4 0;
#X connect 34 5 27 0;
#X connect 34 6 35 0;
#X restore 365 96 pd attribute;
#X text 366 167 Intermediary processing;
#N canvas 73 50 864 440 volume_envelope 0;
#X text 132 248 A;
#X text 301 250 D;
#X text 512 253 S;
#X obj 142 53 r attack_\$0;
#X msg 127 289 1 \$1;
#X obj 127 268 f;
#X obj 152 73 loadbang;
#X msg 152 94 50;
#X obj 18 51 sel 1 0;
#X obj 18 79 s noteon_\$0;
#X obj 37 105 s noteoff_\$0;
#X obj 127 20 r noteon_\$0;
#X obj 335 64 r attack_\$0;
#X obj 320 132 f;
#X obj 345 84 loadbang;
#X msg 345 105 50;
#X obj 293 14 r noteon_\$0;
#X obj 293 156 del;
#X obj 293 37 t b b;
#X obj 293 270 pack f f;
#X text 346 130 delay until decay;
#X obj 389 180 loadbang;
#X msg 389 201 50;
#X text 390 226 decay time;
#X obj 378 159 r decay_\$0;
#X obj 308 203 r sus_\$0;
#X obj 501 276 s sus_\$0;
#X obj 511 163 loadbang;
#X msg 511 184 50;
#X text 516 216 sustain level;
#X obj 501 236 / 100;
#X msg 293 291 \$1 \$2;
#X text 157 267 attack time;
#X obj 647 250 f;
#X text 677 249 release time;
#X text 650 231 R;
#X obj 673 36 loadbang;
#X msg 673 57 50;
#X obj 662 16 r release_\$0;
#X msg 647 271 0 \$1;
#X obj 363 228 f;
#X obj 293 229 f;
#X obj 293 181 t b b;
#X obj 18 11 r note_switch_\$0;
#X text 24 -9 note on or off?;
#X floatatom 90 288 5 0 0 0 - - -;
#X floatatom 362 257 5 0 0 0 - - -;
#X floatatom 546 257 5 0 0 0 - - -;
#X floatatom 689 272 5 0 0 0 - - -;
#X obj 501 142 r sustain_\$0;
#X obj 18 137 bng 15 250 50 0 empty empty empty 17 7 0 10 -262144 -1
-1;
#X obj 37 137 bng 15 250 50 0 empty empty empty 17 7 0 10 -262144 -1
-1;
#X obj 647 -16 r noteoff_\$0;
#X obj 24 196 loadbang;
#X msg 24 217 0 10;
#X obj 24 238 s envelope_\$0;
#X text 27 178 default to 0;
#X obj 127 322 s start_envelope_\$0;
#X obj 293 321 s start_envelope_\$0;
#X obj 647 304 s stop_envelope_\$0;
#X connect 3 0 5 1;
#X connect 4 0 57 0;
#X connect 5 0 4 0;
#X connect 5 0 45 0;
#X connect 6 0 7 0;
#X connect 7 0 5 1;
#X connect 8 0 9 0;
#X connect 8 0 50 0;
#X connect 8 1 10 0;
#X connect 8 1 51 0;
#X connect 11 0 5 0;
#X connect 12 0 13 1;
#X connect 13 0 17 1;
#X connect 14 0 15 0;
#X connect 15 0 13 1;
#X connect 16 0 18 0;
#X connect 17 0 42 0;
#X connect 18 0 17 0;
#X connect 18 1 13 0;
#X connect 19 0 31 0;
#X connect 21 0 22 0;
#X connect 22 0 40 1;
#X connect 24 0 40 1;
#X connect 25 0 41 1;
#X connect 27 0 28 0;
#X connect 28 0 30 0;
#X connect 30 0 26 0;
#X connect 30 0 47 0;
#X connect 31 0 58 0;
#X connect 33 0 39 0;
#X connect 33 0 48 0;
#X connect 36 0 37 0;
#X connect 37 0 33 1;
#X connect 38 0 33 1;
#X connect 39 0 59 0;
#X connect 40 0 19 1;
#X connect 40 0 46 0;
#X connect 41 0 19 0;
#X connect 42 0 41 0;
#X connect 42 1 40 0;
#X connect 43 0 8 0;
#X connect 49 0 30 0;
#X connect 52 0 33 0;
#X connect 53 0 54 0;
#X connect 54 0 55 0;
#X restore 366 188 pd volume_envelope;
#X msg 223 177 \; pd-voice.pd loadbang;
#X obj 19 136 route note attribute boolean event loadbang;
#N canvas 403 144 604 300 drum 0;
#X obj 13 16 r event_\$0;
#N canvas 0 0 450 300 beep 0;
#X obj 45 105 vline~;
#X obj 29 126 *~;
#X msg 45 85 1 10 \, 0 10 50;
#X obj 28 27 osc~ 440;
#X obj 30 147 *~ 0.4;
#X obj 30 168 dac~;
#X obj 45 62 inlet;
#X connect 0 0 1 1;
#X connect 1 0 4 0;
#X connect 1 0 4 1;
#X connect 2 0 0 0;
#X connect 3 0 1 0;
#X connect 4 0 5 0;
#X connect 4 0 5 1;
#X connect 6 0 2 0;
#X restore 216 57 pd beep;
#X obj 13 37 route kick snare hat tom1 tom2 tom3 beep;
#X obj 13 57 drum kick \$0;
#X obj 46 156 drum snare \$0;
#X obj 80 99 drum hat \$0;
#X obj 114 58 drum tom1 \$0;
#X obj 148 78 drum tom2 \$0;
#X obj 182 99 drum tom3 \$0;
#X obj 296 20 catch~ drum_bus_\$0;
#X obj 296 170 dac~;
#X obj 413 48 loadbang;
#X obj 310 40 r drum_level_\$0;
#X obj 310 105 line~;
#X obj 296 125 *~;
#X msg 310 84 \$1 10;
#X msg 413 68 0.7;
#X obj 296 147 *~ 1.2;
#N canvas 0 0 450 300 roll 0;
#X obj 31 193 s s_roll_\$0;
#X obj 31 14 r snare_roll_\$0;
#X obj 31 36 unpack f f;
#X obj 31 146 metro;
#X obj 31 120 t 1 f;
#X obj 73 77 bang;
#X obj 73 98 del;
#X msg 73 119 0;
#X floatatom 134 70 5 0 0 0 - - -;
#X floatatom 177 73 5 0 0 0 - - -;
#X connect 1 0 2 0;
#X connect 2 0 4 0;
#X connect 2 0 5 0;
#X connect 2 0 8 0;
#X connect 2 1 6 1;
#X connect 2 1 9 0;
#X connect 3 0 0 0;
#X connect 4 0 3 0;
#X connect 4 1 3 1;
#X connect 5 0 6 0;
#X connect 6 0 7 0;
#X connect 7 0 3 0;
#X restore 9 208 pd roll;
#X obj 60 128 r s_roll_\$0;
#X obj 310 61 / 100;
#X connect 0 0 2 0;
#X connect 2 0 3 0;
#X connect 2 1 4 0;
#X connect 2 2 5 0;
#X connect 2 3 6 0;
#X connect 2 4 7 0;
#X connect 2 5 8 0;
#X connect 2 6 1 0;
#X connect 9 0 14 0;
#X connect 11 0 16 0;
#X connect 12 0 20 0;
#X connect 13 0 14 1;
#X connect 14 0 17 0;
#X connect 15 0 13 0;
#X connect 16 0 15 0;
#X connect 17 0 10 0;
#X connect 17 0 10 1;
#X connect 19 0 4 0;
#X connect 20 0 15 0;
#X restore 521 135 pd drum;
#N canvas 66 111 647 300 boolean 0;
#X obj 17 48 route sine fm square;
#X obj 17 68 s sine_switch_\$0;
#X obj 56 88 s fm_switch_\$0;
#X text 19 12 Switch synths on and off;
#X obj 95 107 s sq_switch_\$0;
#X obj 17 28 r boolean_\$0;
#X obj 203 27 r boolean_\$0;
#X text 205 10 sqare wave filter;
#X obj 203 47 route sq_filter;
#X obj 203 67 s sq_filter_switch_\$0;
#X obj 348 27 r boolean_\$0;
#X text 350 10 noise sqitch;
#X obj 348 47 route noise;
#X obj 348 67 s noise_\$0;
#X connect 0 0 1 0;
#X connect 0 1 2 0;
#X connect 0 2 4 0;
#X connect 5 0 0 0;
#X connect 6 0 8 0;
#X connect 8 0 9 0;
#X connect 10 0 12 0;
#X connect 12 0 13 0;
#X restore 365 117 pd boolean;
#X text 521 116 other noisemakers;
#N canvas 367 24 611 438 noise 0;
#X obj 27 12 noise~;
#X obj 27 189 *~;
#X obj 26 367 dac~;
#X obj 75 163 line~;
#X msg 75 121 1 \$1;
#X obj 75 101 f;
#X obj 90 78 r n_attack_\$0;
#X obj 162 101 f;
#X msg 162 121 0 \$1;
#X obj 75 12 r noise_\$0;
#X obj 75 33 sel 1 0;
#X obj 370 14 loadbang;
#X obj 370 57 s n_attack_\$0;
#X msg 370 34 1000;
#X obj 177 78 r n_decay_\$0;
#X obj 27 342 vcf~;
#X obj 48 319 r n_q_\$0;
#X obj 370 125 s n_q_\$0;
#X obj 38 298 r~ n_f_freq_\$0;
#X obj 285 168 r n_f_freq_\$0;
#X text 304 14 initialize;
#X text 129 33 volume envelope;
#X obj 286 397 s~ n_f_freq_\$0;
#X text 285 149 filter centre frequency;
#X msg 285 104 440;
#X msg 370 104 1;
#X floatatom 61 342 5 0 0 0 - - -;
#X obj 285 125 s n_f_freq_\$0;
#X obj 386 79 s n_decay_\$0;
#X obj 170 230 r n_f_width_\$0;
#X text 171 210 define Q factor;
#X obj 170 251 * -1;
#X obj 170 293 s n_q_\$0;
#X obj 170 272 + 101;
#X obj 286 376 +~;
#X obj 300 230 r n_f_mod_freq_\$0;
#X obj 300 272 line~;
#X obj 300 293 osc~;
#X obj 300 347 *~;
#X obj 358 292 line~;
#X obj 285 209 line~;
#X obj 358 251 r n_f_mod_depth_\$0;
#X msg 468 35 0;
#X obj 468 56 s n_f_mod_freq_\$0;
#X obj 468 14 loadbang;
#X msg 468 78 0;
#X obj 468 99 s n_f_mod_depth_\$0;
#X msg 285 187 \$1 400;
#X msg 301 251 \$1 400;
#X msg 358 271 \$1 400;
#X connect 0 0 1 0;
#X connect 1 0 15 0;
#X connect 3 0 1 1;
#X connect 4 0 3 0;
#X connect 5 0 4 0;
#X connect 6 0 5 1;
#X connect 7 0 8 0;
#X connect 8 0 3 0;
#X connect 9 0 10 0;
#X connect 10 0 5 0;
#X connect 10 1 7 0;
#X connect 11 0 13 0;
#X connect 11 0 24 0;
#X connect 11 0 25 0;
#X connect 13 0 12 0;
#X connect 13 0 28 0;
#X connect 14 0 7 1;
#X connect 15 0 2 0;
#X connect 15 0 2 1;
#X connect 16 0 15 2;
#X connect 16 0 26 0;
#X connect 18 0 15 1;
#X connect 19 0 47 0;
#X connect 24 0 27 0;
#X connect 25 0 17 0;
#X connect 29 0 31 0;
#X connect 31 0 33 0;
#X connect 33 0 32 0;
#X connect 34 0 22 0;
#X connect 35 0 48 0;
#X connect 36 0 37 0;
#X connect 37 0 38 0;
#X connect 38 0 34 1;
#X connect 39 0 38 1;
#X connect 40 0 34 0;
#X connect 41 0 49 0;
#X connect 42 0 43 0;
#X connect 44 0 42 0;
#X connect 44 0 45 0;
#X connect 45 0 46 0;
#X connect 47 0 40 0;
#X connect 48 0 36 0;
#X connect 49 0 39 0;
#X restore 521 154 pd noise;
#X obj 19 26 netreceive \$1 1;
#X connect 17 0 0 0;
#X connect 17 0 4 0;
#X connect 17 1 1 0;
#X connect 17 1 5 0;
#X connect 17 2 2 0;
#X connect 17 2 6 0;
#X connect 17 3 3 0;
#X connect 17 3 7 0;
#X connect 17 4 16 0;
#X connect 22 0 17 0;
