#N canvas 0 0 875 464 10;
#X obj 19 26 netreceive \$1;
#X floatatom 120 49 5 0 0 0 - - -;
#X obj 19 232 print note_\$1;
#X obj 70 211 print attribute_\$1;
#X obj 121 190 print boolean_\$1;
#X obj 172 168 print event_\$1;
#X obj 19 325 s note_\$0;
#X obj 69 304 s attribute_\$0;
#X obj 121 284 s boolean_\$0;
#X obj 172 264 s event_\$0;
#N canvas 438 214 450 300 note 0;
#X obj 39 22 r note_\$0;
#X obj 39 57 unpack f f;
#X floatatom 39 85 5 0 0 0 - - -;
#X floatatom 96 84 5 0 0 0 - - -;
#X obj 39 108 pipe 1;
#X obj 39 168 mtof;
#X obj 39 196 s pitch_\$0;
#X obj 39 144 makenote 1;
#X obj 108 197 s note_switch_\$0;
#X connect 0 0 1 0;
#X connect 1 0 2 0;
#X connect 1 1 3 0;
#X connect 2 0 4 0;
#X connect 3 0 7 2;
#X connect 4 0 7 0;
#X connect 5 0 6 0;
#X connect 7 0 5 0;
#X connect 7 1 8 0;
#X restore 296 85 pd note;
#X text 296 52 message;
#X text 296 66 parsing/routing;
#X text 433 56 main sound maker;
#N canvas 484 209 450 300 synth 1;
#X msg 59 38 \$1 10;
#X obj 59 63 line~;
#X obj 59 13 r pitch_\$0;
#X obj 60 278 dac~;
#N canvas 0 72 450 300 volume~ 0;
#X obj 24 25 inlet~;
#X obj 23 219 outlet~;
#X obj 23 185 *~;
#X obj 123 148 line~;
#X obj 123 89 r volume_\$0;
#X msg 123 127 \$1 10;
#X obj 123 108 / 100;
#X obj 223 70 loadbang;
#X msg 223 91 50;
#X text 226 47 default;
#X floatatom 174 127 5 0 0 0 - - -;
#X connect 0 0 2 0;
#X connect 2 0 1 0;
#X connect 3 0 2 1;
#X connect 4 0 6 0;
#X connect 5 0 3 0;
#X connect 6 0 5 0;
#X connect 6 0 10 0;
#X connect 7 0 8 0;
#X connect 8 0 6 0;
#X restore 61 235 pd volume~;
#N canvas 500 211 450 300 note_envelope~ 0;
#X obj 65 163 *~;
#X obj 159 106 line~;
#X obj 65 117 inlet~;
#X obj 65 204 outlet~;
#X obj 159 84 r envelope_\$0;
#X connect 0 0 3 0;
#X connect 1 0 0 1;
#X connect 2 0 0 0;
#X connect 4 0 1 0;
#X restore 61 206 pd note_envelope~;
#N canvas 0 0 450 300 master_volume~ 0;
#X obj 34 35 inlet~;
#X obj 33 229 outlet~;
#X obj 33 195 *~;
#X obj 133 158 line~;
#X msg 133 137 \$1 10;
#X obj 133 116 / 100;
#X obj 133 95 r master_volume_\$0;
#X obj 252 74 loadbang;
#X msg 252 95 50;
#X text 255 51 default;
#X connect 0 0 2 0;
#X connect 2 0 1 0;
#X connect 3 0 2 1;
#X connect 4 0 3 0;
#X connect 5 0 4 0;
#X connect 6 0 5 0;
#X connect 7 0 8 0;
#X connect 8 0 5 0;
#X restore 61 258 pd master_volume~;
#N canvas 116 27 759 482 synthesis~ 1;
#X obj 12 15 inlet~;
#X obj 13 402 outlet~;
#X text 63 14 Control frequency (audio);
#X text 64 401 Audio signal;
#X msg 29 104 \$0 10;
#X obj 29 125 line~;
#X obj 12 36 s~ synth_in_\$0;
#X obj 13 63 r~ synth_in_\$0;
#X obj 136 146 *~;
#X msg 152 103 \$0 10;
#X obj 152 124 line~;
#X obj 136 62 r~ synth_in_\$0;
#X obj 29 84 r sine_switch_\$0;
#X obj 152 84 r fm_switch_\$0;
#X obj 246 146 *~;
#X msg 262 103 \$0 10;
#X obj 262 124 line~;
#X obj 246 62 r~ synth_in_\$0;
#X obj 263 84 r sq_switch_\$0;
#X obj 13 147 *~;
#X obj 436 17 loadbang;
#X msg 436 38 1;
#X obj 436 57 s sine_switch_\$0;
#X msg 541 37 \; fm_switch_\$0 0 \; sq_switch_\$0 0;
#X connect 0 0 6 0;
#X connect 4 0 5 0;
#X connect 5 0 19 1;
#X connect 7 0 19 0;
#X connect 9 0 10 0;
#X connect 10 0 8 1;
#X connect 11 0 8 0;
#X connect 12 0 4 0;
#X connect 13 0 9 0;
#X connect 15 0 16 0;
#X connect 16 0 14 1;
#X connect 17 0 14 0;
#X connect 18 0 15 0;
#X connect 20 0 21 0;
#X connect 20 0 23 0;
#X connect 21 0 22 0;
#X restore 60 104 pd synthesis~;
#X connect 0 0 1 0;
#X connect 1 0 7 0;
#X connect 2 0 0 0;
#X connect 4 0 6 0;
#X connect 5 0 4 0;
#X connect 6 0 3 0;
#X connect 6 0 3 1;
#X connect 7 0 5 0;
#X restore 436 85 pd synth;
#N canvas 557 33 450 300 attribute 1;
#X obj 16 11 r attribute_\$0;
#X obj 16 71 s volume_\$0;
#X obj 16 37 route volume attack_time decay_time sustain_level release_time
;
#X obj 74 92 s attack_\$0;
#X obj 132 113 s decay_\$0;
#X obj 248 154 s release_\$0;
#X obj 190 134 s sustain_\$0;
#X text 108 9 Volume related;
#X obj 17 199 r attribute_\$0;
#X obj 17 219 route sine fm square;
#X connect 0 0 2 0;
#X connect 2 0 1 0;
#X connect 2 1 3 0;
#X connect 2 2 4 0;
#X connect 2 3 6 0;
#X connect 2 4 5 0;
#X connect 8 0 9 0;
#X restore 296 106 pd attribute;
#X text 297 177 Intermediary processing;
#N canvas 0 0 864 479 volume_envelope 0;
#X text 132 248 A;
#X text 301 250 D;
#X text 512 253 S;
#X obj 142 53 r attack_\$0;
#X msg 127 289 1 \$1;
#X obj 127 268 f;
#X obj 152 73 loadbang;
#X msg 152 94 50;
#X obj 18 51 sel 1 0;
#X obj 127 322 s envelope_\$0;
#X obj 18 79 s noteon_\$0;
#X obj 37 105 s noteoff_\$0;
#X obj 127 20 r noteon_\$0;
#X obj 335 64 r attack_\$0;
#X obj 320 132 f;
#X obj 345 84 loadbang;
#X msg 345 105 50;
#X obj 293 14 r noteon_\$0;
#X obj 293 156 del;
#X obj 293 321 s envelope_\$0;
#X obj 293 37 t b b;
#X obj 293 270 pack f f;
#X text 346 130 delay until decay;
#X obj 389 180 loadbang;
#X msg 389 201 50;
#X text 390 226 decay time;
#X obj 378 159 r decay_\$0;
#X obj 308 203 r sus_\$0;
#X obj 501 276 s sus_\$0;
#X obj 511 163 loadbang;
#X msg 511 184 50;
#X text 516 216 sustain level;
#X obj 501 236 / 100;
#X msg 293 291 \$1 \$2;
#X text 157 267 attack time;
#X obj 647 250 f;
#X obj 647 304 s envelope_\$0;
#X text 677 249 release time;
#X text 650 231 R;
#X obj 673 36 loadbang;
#X msg 673 57 50;
#X obj 662 16 r release_\$0;
#X msg 647 271 0 \$1;
#X obj 363 228 f;
#X obj 293 229 f;
#X obj 293 181 t b b;
#X obj 18 11 r note_switch_\$0;
#X text 24 -9 note on or off?;
#X floatatom 90 288 5 0 0 0 - - -;
#X floatatom 362 257 5 0 0 0 - - -;
#X floatatom 546 257 5 0 0 0 - - -;
#X floatatom 689 272 5 0 0 0 - - -;
#X obj 501 142 r sustain_\$0;
#X obj 18 137 bng 15 250 50 0 empty empty empty 17 7 0 10 -262144 -1
-1;
#X obj 37 137 bng 15 250 50 0 empty empty empty 17 7 0 10 -262144 -1
-1;
#X obj 647 -16 r noteoff_\$0;
#X obj 24 196 loadbang;
#X msg 24 217 0 10;
#X obj 24 238 s envelope_\$0;
#X text 27 178 default to 0;
#X connect 3 0 5 1;
#X connect 4 0 9 0;
#X connect 5 0 4 0;
#X connect 5 0 48 0;
#X connect 6 0 7 0;
#X connect 7 0 5 1;
#X connect 8 0 10 0;
#X connect 8 0 53 0;
#X connect 8 1 11 0;
#X connect 8 1 54 0;
#X connect 12 0 5 0;
#X connect 13 0 14 1;
#X connect 14 0 18 1;
#X connect 15 0 16 0;
#X connect 16 0 14 1;
#X connect 17 0 20 0;
#X connect 18 0 45 0;
#X connect 20 0 18 0;
#X connect 20 1 14 0;
#X connect 21 0 33 0;
#X connect 23 0 24 0;
#X connect 24 0 43 1;
#X connect 26 0 43 1;
#X connect 27 0 44 1;
#X connect 29 0 30 0;
#X connect 30 0 32 0;
#X connect 32 0 28 0;
#X connect 32 0 50 0;
#X connect 33 0 19 0;
#X connect 35 0 42 0;
#X connect 35 0 51 0;
#X connect 39 0 40 0;
#X connect 40 0 35 1;
#X connect 41 0 35 1;
#X connect 42 0 36 0;
#X connect 43 0 21 1;
#X connect 43 0 49 0;
#X connect 44 0 21 0;
#X connect 45 0 44 0;
#X connect 45 1 43 0;
#X connect 46 0 8 0;
#X connect 52 0 32 0;
#X connect 55 0 35 0;
#X connect 56 0 57 0;
#X connect 57 0 58 0;
#X restore 297 198 pd volume_envelope;
#X msg 95 99 \; pd-voice.pd loadbang;
#X obj 19 136 route note attribute boolean event loadbang;
#X obj 95 78 sel 1;
#X text 437 126 Drum sounds;
#N canvas 403 144 450 300 drum 0;
#X obj 13 16 r event_\$0;
#X obj 13 37 route kick snare hat beep;
#X obj 30 134 vline~;
#X obj 6 226 dac~;
#X obj 6 180 *~;
#X msg 30 113 1 50 \, 0.5 50 50 \, 0 100 100;
#X obj 6 201 *~ 0.5;
#X obj 7 159 osc~ 50;
#X obj 148 166 noise~;
#X obj 148 187 bp~ 600 10;
#X obj 134 208 *~;
#X obj 103 166 vline~;
#X msg 103 145 1 50 \, 0.5 50 50 \, 0 100 100;
#X obj 134 250 dac~;
#X obj 133 229 *~ 5;
#X obj 320 168 noise~;
#X obj 306 210 *~;
#X obj 275 168 vline~;
#X msg 275 147 1 50 \, 0.5 50 50 \, 0 100 100;
#X obj 306 252 dac~;
#X obj 320 188 bp~ 10000 100;
#X obj 305 231 *~ 1;
#X obj 315 62 vline~;
#X obj 299 83 *~;
#X msg 315 42 1 10 \, 0 10 50;
#X obj 298 17 osc~ 440;
#X obj 300 104 *~ 0.4;
#X obj 300 125 dac~;
#X connect 0 0 1 0;
#X connect 1 0 5 0;
#X connect 1 1 12 0;
#X connect 1 2 18 0;
#X connect 1 3 24 0;
#X connect 2 0 4 1;
#X connect 4 0 6 0;
#X connect 5 0 2 0;
#X connect 6 0 3 0;
#X connect 6 0 3 1;
#X connect 7 0 4 0;
#X connect 8 0 9 0;
#X connect 9 0 10 1;
#X connect 10 0 14 0;
#X connect 11 0 10 0;
#X connect 12 0 11 0;
#X connect 14 0 13 0;
#X connect 14 0 13 1;
#X connect 15 0 20 0;
#X connect 16 0 21 0;
#X connect 17 0 16 0;
#X connect 18 0 17 0;
#X connect 20 0 16 1;
#X connect 21 0 19 0;
#X connect 21 0 19 1;
#X connect 22 0 23 1;
#X connect 23 0 26 0;
#X connect 23 0 26 1;
#X connect 24 0 22 0;
#X connect 25 0 23 0;
#X connect 26 0 27 0;
#X connect 26 0 27 1;
#X restore 437 145 pd drum;
#X connect 0 0 19 0;
#X connect 0 1 1 0;
#X connect 19 0 2 0;
#X connect 19 0 6 0;
#X connect 19 1 3 0;
#X connect 19 1 7 0;
#X connect 19 2 4 0;
#X connect 19 2 8 0;
#X connect 19 3 5 0;
#X connect 19 3 9 0;
#X connect 19 4 20 0;
#X connect 20 0 18 0;
